<?xml version="1.0" encoding="utf-8"?>
<!-- Svg Vector Icons : http://www.onlinewebfonts.com/icon -->
<!DOCTYPE svg PUBLIC "-//W3C//DTD SVG 1.1//EN" "http://www.w3.org/Graphics/SVG/1.1/DTD/svg11.dtd">
<svg version="1.1" xmlns="http://www.w3.org/2000/svg" xmlns:xlink="http://www.w3.org/1999/xlink" x="0px" y="0px" viewBox="0 0 256 256" enable-background="new 0 0 256 256" xml:space="preserve">
<metadata> Svg Vector Icons : http://www.onlinewebfonts.com/icon </metadata>
<g><g><g><g><path fill="#000000" d="M133.4 197.7L133.4 133.4 197.7 133.4 197.7 122.6 133.4 122.6 133.4 58.3 122.6 58.3 122.6 122.6 58.3 122.6 58.3 133.4 122.6 133.4 122.6 197.7 z"/><path fill="#000000" d="M246,128c0-65.2-52.8-118-118-118C62.8,10,10,62.8,10,128c0,65.2,52.8,118,118,118C193.2,246,246,193.2,246,128z M20.7,128c0-59.2,48-107.3,107.3-107.3c59.2,0,107.3,48,107.3,107.3c0,59.2-48,107.3-107.3,107.3C68.8,235.3,20.7,187.2,20.7,128z"/></g></g><g></g><g></g><g></g><g></g><g></g><g></g><g></g><g></g><g></g><g></g><g></g><g></g><g></g><g></g><g></g></g></g>
</svg>