<svg width="54" height="37" viewBox="0 0 54 37" fill="none" xmlns="http://www.w3.org/2000/svg">
<path d="M9.78967 12.7341V36.2743H52V12.7341H9.78967ZM12.2255 28.4969V20.5084C14.8376 20.3259 16.9006 18.155 16.9006 15.4969C16.9006 15.3858 16.8847 15.2794 16.8768 15.1699H26.2333C23.6355 17.0822 21.9025 20.5432 21.9025 24.5041C21.9025 28.4635 23.6355 31.9278 26.2333 33.84H16.8768C16.8847 33.7305 16.9006 33.6242 16.9006 33.513C16.9006 30.8551 14.8376 28.6794 12.2255 28.4969ZM28.6612 29.0159C27.9963 28.8334 27.1234 28.1002 27.1234 28.1002C27.0504 28.0557 27.0013 27.9795 26.9901 27.8939C26.9805 27.8098 27.0092 27.7193 27.0694 27.6606L27.9232 26.8084C28.012 26.7179 28.1548 26.7004 28.2659 26.7687C28.2659 26.7687 28.9038 27.3225 29.3879 27.4542C29.8687 27.5843 30.348 27.6511 30.8272 27.6511C31.4303 27.6511 31.9317 27.5447 32.3237 27.3305C32.722 27.1163 32.9172 26.7863 32.9172 26.3324C32.9172 26.0054 32.8204 25.75 32.6268 25.5596C32.43 25.3723 32.1015 25.2549 31.6366 25.201L30.11 25.0692C29.2086 24.9835 28.5104 24.7344 28.0216 24.3186C27.5312 23.9044 27.2869 23.276 27.2869 22.4349C27.2869 21.9715 27.3805 21.5573 27.5693 21.1924C27.7566 20.829 28.012 20.5212 28.3421 20.2704C28.669 20.0197 29.0499 19.8324 29.4815 19.7054C29.6624 19.6546 29.8528 19.6182 30.0433 19.5864V18.3612H31.7444V19.5641C32.1411 19.6022 32.5189 19.6657 32.868 19.7625C33.4647 19.9259 34.0932 20.4147 34.0932 20.4147C34.171 20.4544 34.2249 20.5306 34.2392 20.6195C34.2519 20.7052 34.2234 20.7941 34.1599 20.8575L33.3616 21.6684C33.2775 21.7557 33.1458 21.7748 33.0363 21.7208C33.0363 21.7208 32.5634 21.3844 32.1539 21.2781C31.7477 21.1702 31.316 21.1194 30.8653 21.1194C30.2749 21.1194 29.837 21.2289 29.5561 21.4574C29.2752 21.6811 29.1324 21.9779 29.1324 22.3397C29.1324 22.6698 29.2323 22.919 29.4339 23.0952C29.6339 23.2698 29.9735 23.384 30.4495 23.4316L31.789 23.5473C32.7809 23.6362 33.5283 23.898 34.0361 24.3376C34.5471 24.7756 34.801 25.4167 34.801 26.2577C34.801 26.7608 34.6994 27.2003 34.4994 27.5733C34.2994 27.9558 34.0202 28.2684 33.6711 28.5254C33.3188 28.7857 32.8983 28.9761 32.4095 29.1031C32.1968 29.1555 31.9731 29.192 31.7445 29.2221V30.6488H30.0434V29.2523C29.5578 29.2111 29.0976 29.1364 28.6612 29.0159ZM35.5564 15.17H44.9097C44.9018 15.2795 44.8843 15.3859 44.8843 15.497C44.8843 18.1534 46.952 20.3243 49.5657 20.5085V28.497C46.9521 28.6795 44.8843 30.8552 44.8843 33.5133C44.8843 33.6244 44.9018 33.7307 44.9097 33.8402H35.5564C38.1526 31.928 39.8871 28.4637 39.8871 24.5044C39.887 20.5433 38.1525 17.0823 35.5564 15.17Z" fill="#F5F5F5"/>
<path d="M45.8634 7.87021H4.87024V31.0042H7.30622V10.3061H45.8634V7.87021Z" fill="#F5F5F5"/>
<path d="M38.5588 3H0V24.5105H2.43435V5.43425H38.5588V3Z" fill="#F5F5F5"/>
<path fill-rule="evenodd" clip-rule="evenodd" d="M52.75 3.75H50.25V1.25C50.25 0.559375 49.6903 0 49 0C48.3097 0 47.75 0.559375 47.75 1.25V3.75H45.25C44.5597 3.75 44 4.30937 44 5C44 5.69063 44.5597 6.25 45.25 6.25H47.75V8.75C47.75 9.44063 48.3097 10 49 10C49.6903 10 50.25 9.44063 50.25 8.75V6.25H52.75C53.4403 6.25 54 5.69063 54 5C54 4.30937 53.4403 3.75 52.75 3.75Z" fill="#F5F5F5"/>
</svg>
