<svg width="33" height="39" viewBox="0 0 33 39" fill="none" xmlns="http://www.w3.org/2000/svg">
<path d="M3.1332 30.8279C3.00072 31.0732 2.96609 31.3431 3.03368 31.6034C3.10128 31.8638 3.26807 32.1029 3.51295 32.2906L12.2629 39L14.7374 37.1026L8.97466 32.6838H31V30H4.75019C4.40405 29.9998 4.06561 30.0783 3.77774 30.2257C3.48988 30.3731 3.26556 30.5827 3.1332 30.8279Z" fill="white"/>
<path d="M30.8668 8.17206C30.9993 7.9268 31.0339 7.65691 30.9663 7.39656C30.8987 7.1362 30.7319 6.89706 30.4871 6.70941L21.7371 2.81214e-07L19.2626 1.89742L25.0253 6.31624H3V9H29.2498C29.5959 9.00024 29.9344 8.92169 30.2223 8.7743C30.5101 8.62691 30.7344 8.41731 30.8668 8.17206Z" fill="white"/>
<path d="M33 12.891V26.109C32.9994 26.3452 32.8947 26.5715 32.7086 26.7385C32.5226 26.9055 32.2704 26.9995 32.0073 27H0.994744C0.731283 27 0.478582 26.9062 0.292092 26.7392C0.105601 26.5721 0.000553489 26.3455 0 26.109V12.891C0.00055215 12.6548 0.105312 12.4285 0.291351 12.2615C0.477391 12.0945 0.729555 12.0005 0.992654 12H32.0053C32.2687 12 32.5214 12.0938 32.7079 12.2608C32.8944 12.4279 32.9994 12.6545 33 12.891ZM23.3723 19.5028C23.3693 18.0237 22.7543 16.5984 21.6466 15.5033C20.539 14.4082 19.0176 13.7214 17.3777 13.5761C15.7378 13.4308 14.0962 13.8373 12.7714 14.7169C11.4465 15.5965 10.5329 16.8864 10.2077 18.3364C9.88255 19.7864 10.169 21.2931 11.0115 22.5643C11.854 23.8354 13.1925 24.7804 14.7673 25.2159C16.3422 25.6514 18.0411 25.5464 19.5345 24.9212C21.028 24.296 22.2095 23.1953 22.8499 21.8324C23.1967 21.0953 23.3744 20.303 23.3723 19.5028ZM19.2429 19.7204C19.6063 20.094 19.8068 20.5731 19.8071 21.069C19.8057 21.4209 19.7013 21.7662 19.5043 22.0704C19.3074 22.3746 19.0248 22.6269 18.6849 22.8022C18.3315 23.003 17.9418 23.1471 17.5334 23.228V23.9126C17.5334 24.1096 17.4462 24.2985 17.291 24.4378C17.1358 24.5771 16.9253 24.6554 16.7058 24.6554C16.4864 24.6554 16.2759 24.5771 16.1207 24.4378C15.9655 24.2985 15.8783 24.1096 15.8783 23.9126V23.2373C15.6181 23.1906 15.3639 23.1203 15.1197 23.0273C14.7405 22.8861 14.405 22.6647 14.1417 22.382C14.0646 22.3092 14.0047 22.2232 13.9658 22.129C13.9268 22.0349 13.9095 21.9346 13.9149 21.8343C13.9203 21.734 13.9484 21.6357 13.9973 21.5454C14.0463 21.4551 14.1151 21.3746 14.1997 21.3089C14.2842 21.2431 14.3828 21.1934 14.4894 21.1628C14.5959 21.1322 14.7083 21.1214 14.8197 21.1308C14.9311 21.1403 15.0392 21.17 15.1375 21.2181C15.2357 21.2661 15.3221 21.3315 15.3914 21.4104C15.4831 21.5125 15.6005 21.5935 15.7341 21.6467C15.8793 21.704 16.0305 21.748 16.1855 21.778C16.3469 21.8057 16.5103 21.8233 16.6745 21.8306C17.0662 21.8314 17.4507 21.7361 17.7863 21.5548C18.1541 21.341 18.1541 21.1572 18.1541 21.0672C18.1521 20.9312 18.0965 20.8003 17.9973 20.6976C17.891 20.5901 17.7653 20.4994 17.6254 20.4294C17.4799 20.3624 17.3254 20.3126 17.1656 20.2812C17.0178 20.254 16.8672 20.2408 16.7163 20.2418C16.4684 20.2422 16.221 20.224 15.9765 20.1874C15.6454 20.1384 15.3242 20.0455 15.0236 19.9117C14.6739 19.7549 14.3654 19.533 14.1187 19.2608C13.7772 18.8914 13.5876 18.4278 13.5816 17.9479C13.5895 17.5839 13.7017 17.2279 13.9074 16.9141C14.1131 16.6004 14.4054 16.3395 14.7561 16.1566C15.1018 15.9654 15.4813 15.8284 15.8783 15.7514V15.0912C15.8783 14.8942 15.9655 14.7052 16.1207 14.5659C16.2759 14.4266 16.4864 14.3484 16.7058 14.3484C16.9253 14.3484 17.1358 14.4266 17.291 14.5659C17.4462 14.7052 17.5334 14.8942 17.5334 15.0912V15.772C17.7994 15.8278 18.0585 15.9076 18.3066 16.0103C18.6259 16.1399 18.9167 16.3196 19.1655 16.5411C19.3098 16.6821 19.3878 16.8676 19.3834 17.059C19.3789 17.2503 19.2924 17.4328 19.1417 17.5682C18.991 17.7037 18.7879 17.7817 18.5747 17.7861C18.3615 17.7904 18.1547 17.7207 17.9973 17.5915C17.8899 17.4969 17.7647 17.42 17.6274 17.3645C17.478 17.3017 17.3219 17.2527 17.1614 17.2182L17.1134 17.2088C16.9872 17.1799 16.8586 17.1605 16.7288 17.1507C16.347 17.15 15.9719 17.2406 15.6421 17.4133C15.5283 17.4626 15.4309 17.538 15.3597 17.6319C15.2885 17.7257 15.2461 17.8347 15.2367 17.9479C15.2454 18.0859 15.3041 18.2177 15.4039 18.323C15.5022 18.4319 15.6246 18.5213 15.7633 18.5856C15.9167 18.6526 16.08 18.6993 16.2482 18.7244C16.4029 18.7468 16.5595 18.7575 16.7163 18.7563C16.986 18.7557 17.255 18.7809 17.5188 18.8313C17.8241 18.8912 18.1192 18.9871 18.3965 19.1164C18.7164 19.2709 19.003 19.4754 19.2429 19.7204Z" fill="white"/>
</svg>
