<svg width="39" height="39" viewBox="0 0 39 39" fill="none" xmlns="http://www.w3.org/2000/svg">
<g clip-path="url(#clip0_45_15)">
<path d="M19.5012 22C18.8797 22 18.3759 22.4925 18.3759 23.1001V29.2448L16.921 27.8226C16.4816 27.3931 15.7691 27.3931 15.3296 27.8226C14.8901 28.2523 14.8901 28.9487 15.3296 29.3784L18.7045 32.6778C19.1437 33.1071 19.8556 33.1074 20.2951 32.6786L23.6704 29.3857C24.1099 28.9562 24.1099 28.2595 23.6704 27.8301C23.231 27.4004 22.5186 27.4004 22.079 27.8301L20.6265 29.2499V23.1001C20.6265 22.4925 20.1227 22 19.5012 22Z" fill="#F5F5F5"/>
<path fill-rule="evenodd" clip-rule="evenodd" d="M34.125 1.625C36.8175 1.625 39 3.80762 39 6.5V13C39 15.6924 36.8175 17.875 34.125 17.875H30.875V32.5C30.875 35.1925 28.6925 37.375 26 37.375H13C10.3076 37.375 8.125 35.1925 8.125 32.5V17.875H4.875C2.18262 17.875 0 15.6924 0 13V6.5C0 3.80762 2.18262 1.625 4.875 1.625H34.125ZM35.75 13C35.75 13.8975 35.0225 14.625 34.125 14.625H30.875V11.375H32.5C33.3975 11.375 34.125 10.6475 34.125 9.75C34.125 8.85254 33.3975 8.125 32.5 8.125H6.5C5.60254 8.125 4.875 8.85254 4.875 9.75C4.875 10.6475 5.60254 11.375 6.5 11.375H8.125V14.625H4.875C3.97754 14.625 3.25 13.8975 3.25 13V6.5C3.25 5.60254 3.97754 4.875 4.875 4.875H34.125C35.0225 4.875 35.75 5.60254 35.75 6.5V13ZM11.375 11.375V32.5C11.375 33.3975 12.1025 34.125 13 34.125H26C26.8975 34.125 27.625 33.3975 27.625 32.5V11.375H11.375Z" fill="#F5F5F5"/>
<path d="M16.75 16L16.75 14C16.75 13.7348 16.6534 13.4804 16.4815 13.2929C16.3096 13.1054 16.0764 13 15.8333 13C15.5902 13 15.3571 13.1054 15.1852 13.2929C15.0132 13.4804 14.9167 13.7348 14.9167 14L14.9167 15C14.6736 15 14.4404 15.1054 14.2685 15.2929C14.0966 15.4804 14 15.7348 14 16C14 16.2652 14.0966 16.5196 14.2685 16.7071C14.4404 16.8946 14.6736 17 14.9167 17L15.0817 17C15.3016 17.6614 15.7277 18.2174 16.2854 18.5708C16.843 18.9242 17.4968 19.0525 18.1324 18.9334C18.7681 18.8143 19.3451 18.4552 19.7626 17.919C20.1802 17.3828 20.4117 16.7035 20.4167 16C20.4167 15.7348 20.5132 15.4804 20.6852 15.2929C20.8571 15.1054 21.0902 15 21.3333 15C21.5764 15 21.8096 15.1054 21.9815 15.2929C22.1534 15.4804 22.25 15.7348 22.25 16L22.25 18C22.25 18.2652 22.3466 18.5196 22.5185 18.7071C22.6904 18.8946 22.9236 19 23.1667 19C23.4098 19 23.6429 18.8946 23.8148 18.7071C23.9868 18.5196 24.0833 18.2652 24.0833 18L24.0833 17C24.3264 17 24.5596 16.8946 24.7315 16.7071C24.9034 16.5196 25 16.2652 25 16C25 15.7348 24.9034 15.4804 24.7315 15.2929C24.5596 15.1054 24.3264 15 24.0833 15L23.9183 15C23.6984 14.3386 23.2723 13.7826 22.7146 13.4292C22.157 13.0758 21.5032 12.9475 20.8676 13.0666C20.2319 13.1857 19.6549 13.5448 19.2374 14.081C18.8198 14.6172 18.5883 15.2965 18.5833 16C18.5833 16.2652 18.4868 16.5196 18.3148 16.7071C18.1429 16.8946 17.9098 17 17.6667 17C17.4236 17 17.1904 16.8946 17.0185 16.7071C16.8466 16.5196 16.75 16.2652 16.75 16Z" fill="white"/>
</g>
<defs>
<clipPath id="clip0_45_15">
<rect width="39" height="39" fill="white"/>
</clipPath>
</defs>
</svg>
